<?xml version="1.0" encoding="UTF-8"?>
<svg xmlns="http://www.w3.org/2000/svg" xmlns:xlink="http://www.w3.org/1999/xlink" width="1200px" height="504px" viewBox="0 0 1196 504" version="1.1">
<g id="surface1">
<path style=" stroke:none;fill-rule:nonzero;fill:rgb(0%,0%,0%);fill-opacity:1;" d="M 102.058594 12.757812 C 100.863281 19.9375 98.871094 51.835938 97.671875 83.734375 C 94.882812 153.910156 89.300781 242.03125 81.328125 332.941406 C 78.136719 370.023438 75.746094 412.292969 75.746094 426.644531 C 75.347656 441.796875 72.957031 456.949219 69.765625 462.53125 C 64.585938 471.703125 64.183594 468.113281 63.785156 424.652344 C 62.988281 334.140625 57.808594 265.957031 50.628906 251.601562 C 44.253906 238.839844 44.253906 236.847656 50.628906 219.703125 C 59.003906 195.777344 62.589844 95.296875 56.210938 64.195312 C 47.042969 21.53125 45.847656 19.9375 21.527344 19.9375 C 5.582031 19.9375 0 21.53125 0 25.519531 C 0 28.707031 1.992188 32.695312 3.988281 33.890625 C 9.566406 37.480469 9.566406 478.480469 3.988281 478.480469 C 1.992188 478.480469 0 481.273438 0 484.460938 C 0 488.847656 4.785156 490.441406 19.933594 490.441406 C 39.070312 490.441406 46.644531 484.859375 33.886719 480.074219 C 28.703125 478.082031 27.90625 460.9375 27.90625 361.652344 C 27.90625 269.144531 29.101562 246.816406 32.691406 250.40625 C 36.277344 253.992188 38.671875 283.101562 40.664062 348.09375 C 43.851562 458.144531 46.644531 487.253906 53.820312 496.824219 C 59.003906 504 59.402344 504 66.578125 497.222656 C 70.960938 493.632812 78.136719 490.441406 82.921875 490.441406 C 92.890625 490.441406 94.085938 485.660156 86.511719 478.878906 C 80.53125 474.492188 80.929688 466.121094 87.707031 399.929688 C 90.097656 379.59375 91.691406 351.285156 91.691406 336.929688 C 91.691406 316.992188 93.289062 310.214844 98.070312 308.222656 C 101.261719 307.023438 105.648438 307.425781 107.640625 309.417969 C 113.222656 315 121.195312 476.089844 116.011719 477.683594 C 113.621094 478.480469 111.625 481.671875 111.625 484.859375 C 111.625 489.246094 118.402344 490.441406 141.527344 490.441406 C 165.046875 490.441406 171.425781 489.246094 171.425781 484.859375 C 171.425781 481.671875 169.832031 477.683594 167.441406 476.488281 C 165.046875 474.890625 163.453125 418.671875 163.851562 319.785156 C 164.25 167.46875 165.84375 157.5 175.015625 245.222656 C 180.199219 292.671875 189.367188 371.222656 195.347656 418.671875 C 197.738281 435.019531 199.332031 455.355469 199.332031 463.328125 C 199.332031 480.074219 202.523438 490.441406 207.707031 490.441406 C 209.699219 490.441406 211.292969 393.949219 211.292969 263.5625 C 211.292969 72.570312 212.089844 36.285156 216.875 34.691406 C 220.0625 33.492188 223.652344 33.492188 224.847656 34.691406 C 229.234375 39.074219 227.636719 478.480469 223.253906 478.480469 C 221.261719 478.480469 219.265625 480.875 219.265625 484.0625 C 219.265625 490.839844 252.753906 496.023438 262.722656 490.441406 C 271.09375 486.058594 279.863281 463.726562 289.433594 420.664062 C 295.8125 393.152344 297.007812 370.824219 296.609375 253.195312 C 296.609375 128.792969 295.8125 114.835938 287.835938 84.53125 C 283.453125 66.589844 276.277344 45.058594 272.289062 36.683594 L 265.113281 21.929688 L 230.429688 20.734375 C 197.339844 19.539062 195.347656 19.9375 195.347656 27.910156 C 195.347656 32.296875 197.339844 35.886719 199.332031 35.886719 C 201.726562 35.886719 203.320312 74.5625 203.320312 144.339844 C 203.320312 203.753906 202.523438 251.601562 201.328125 250.40625 C 200.128906 249.207031 197.339844 228.074219 195.347656 202.957031 C 192.953125 177.835938 188.570312 136.765625 185.378906 111.644531 C 182.191406 86.523438 178.601562 55.425781 177.40625 42.664062 C 175.015625 19.9375 175.015625 19.9375 161.460938 19.9375 C 145.910156 19.9375 139.535156 27.113281 148.703125 33.890625 C 154.683594 38.277344 155.480469 58.613281 155.480469 258.777344 C 155.480469 442.195312 154.683594 478.480469 149.898438 478.480469 C 143.121094 478.480469 140.730469 461.734375 135.546875 374.808594 C 133.15625 338.523438 129.566406 283.898438 127.574219 253.195312 C 125.578125 222.492188 121.992188 164.277344 119.601562 123.609375 C 114.019531 25.519531 111.625 0 107.640625 0 C 105.648438 0 103.253906 5.980469 102.058594 12.757812 Z M 37.875 133.574219 C 37.875 192.589844 36.277344 219.703125 33.089844 225.285156 C 29.101562 231.664062 28.304688 213.722656 28.304688 133.574219 C 28.304688 53.429688 29.101562 35.488281 33.089844 41.867188 C 36.277344 47.449219 37.875 74.5625 37.875 133.574219 Z M 264.714844 55.824219 C 274.679688 89.714844 280.660156 248.011719 275.078125 345.703125 C 269.898438 440.601562 263.121094 478.480469 251.160156 478.480469 C 248.769531 478.480469 247.171875 396.742188 247.171875 257.183594 C 247.171875 65.792969 247.96875 35.886719 253.152344 35.886719 C 256.742188 35.886719 261.125 43.859375 264.714844 55.824219 Z M 107.242188 263.960938 C 107.640625 286.691406 106.445312 291.074219 101.261719 291.074219 C 95.679688 291.074219 94.882812 287.886719 97.273438 269.941406 C 98.46875 258.777344 99.667969 236.449219 100.066406 221.296875 L 100.863281 193.386719 L 103.652344 215.316406 C 105.648438 227.277344 106.84375 249.207031 107.242188 263.960938 Z M 107.242188 263.960938 "/>
<path style=" stroke:none;fill-rule:nonzero;fill:rgb(0%,0%,0%);fill-opacity:1;" d="M 334.082031 14.753906 C 300.195312 52.632812 291.824219 364.839844 321.324219 468.910156 C 328.5 493.632812 339.664062 505.992188 348.433594 498.816406 C 367.96875 482.46875 378.734375 395.941406 378.734375 253.195312 C 378.734375 116.429688 370.761719 46.652344 352.421875 16.746094 C 345.644531 5.980469 342.054688 5.582031 334.082031 14.753906 Z M 351.625 46.253906 C 358.003906 69.777344 360.792969 391.160156 354.8125 439.40625 C 349.628906 481.671875 342.851562 494.03125 335.675781 475.691406 C 324.117188 446.183594 318.933594 217.707031 326.90625 105.664062 C 332.886719 25.519531 340.859375 6.777344 351.625 46.253906 Z M 351.625 46.253906 "/>
<path style=" stroke:none;fill-rule:nonzero;fill:rgb(0%,0%,0%);fill-opacity:1;" d="M 382.71875 25.519531 C 382.71875 28.707031 384.714844 32.695312 386.707031 33.890625 C 392.289062 37.480469 392.289062 478.480469 386.707031 478.480469 C 384.714844 478.480469 382.71875 481.273438 382.71875 484.460938 C 382.71875 488.449219 387.105469 490.441406 396.671875 490.441406 C 406.242188 490.441406 410.625 488.449219 410.625 484.460938 C 410.625 481.273438 409.03125 478.480469 406.640625 478.480469 C 403.847656 478.480469 403.050781 428.640625 403.449219 335.734375 C 403.847656 217.707031 404.648438 203.355469 407.039062 251.203125 C 408.632812 283.101562 411.824219 344.90625 414.214844 388.765625 C 416.605469 432.625 418.601562 473.296875 418.601562 479.277344 C 418.601562 485.660156 420.195312 490.441406 422.1875 490.441406 C 426.175781 490.441406 429.363281 453.359375 434.945312 348.890625 C 443.714844 185.410156 445.3125 183.417969 445.710938 333.339844 C 446.507812 458.144531 445.710938 478.082031 440.527344 480.074219 C 427.769531 484.859375 435.34375 490.441406 454.480469 490.441406 C 469.628906 490.441406 474.414062 488.847656 474.414062 484.460938 C 474.414062 481.273438 472.820312 478.480469 470.425781 478.480469 C 464.84375 478.480469 464.84375 37.480469 470.425781 33.890625 C 472.820312 32.695312 474.414062 28.707031 474.414062 25.519531 C 474.414062 21.132812 470.824219 19.9375 459.664062 20.734375 L 444.511719 21.929688 L 443.714844 45.855469 C 443.316406 59.011719 440.925781 94.101562 438.933594 123.609375 C 436.539062 153.113281 433.351562 196.976562 431.757812 221.296875 L 428.964844 265.160156 L 426.175781 219.304688 C 424.578125 194.183594 422.1875 146.335938 420.992188 113.640625 C 419.398438 80.542969 417.402344 46.253906 416.207031 36.683594 C 414.214844 20.335938 413.816406 19.9375 398.269531 19.9375 C 387.503906 19.9375 382.71875 21.53125 382.71875 25.519531 Z M 382.71875 25.519531 "/>
<path style=" stroke:none;fill-rule:nonzero;fill:rgb(0%,0%,0%);fill-opacity:1;" d="M 887.035156 27.910156 C 884.242188 32.296875 882.25 43.859375 868.296875 128.390625 C 863.511719 158.695312 857.53125 183.816406 854.742188 185.011719 C 851.949219 186.207031 849.558594 177.039062 847.566406 156.304688 C 846.371094 139.957031 842.382812 122.011719 839.191406 116.828125 C 833.613281 108.457031 833.613281 106.460938 839.191406 98.886719 C 851.550781 80.941406 843.578125 36.683594 827.234375 30.304688 C 823.644531 29.109375 813.28125 27.910156 804.109375 27.910156 L 787.367188 27.910156 L 787.367188 199.367188 L 804.507812 199.367188 C 820.457031 199.367188 826.039062 194.980469 817.265625 189.398438 C 814.875 188.203125 813.28125 169.859375 813.28125 148.726562 C 813.28125 117.226562 814.078125 111.246094 818.863281 115.234375 C 822.050781 118.023438 825.238281 133.175781 826.835938 154.707031 C 830.421875 196.175781 835.207031 203.753906 856.335938 200.5625 C 874.277344 197.773438 875.472656 196.976562 870.289062 190.59375 C 867.5 187.007812 867.5 177.4375 870.289062 160.292969 C 874.277344 136.765625 875.472656 135.171875 884.640625 136.367188 C 893.011719 137.5625 895.007812 140.753906 899.390625 161.488281 C 902.183594 175.839844 902.582031 187.007812 900.589844 189 C 893.410156 196.574219 897.398438 199.367188 914.941406 199.367188 C 931.285156 199.367188 938.0625 194.980469 929.691406 189.796875 C 927.699219 188.601562 923.3125 170.257812 919.324219 148.726562 C 915.738281 127.195312 910.15625 98.886719 906.964844 85.726562 C 904.175781 72.570312 900.589844 54.226562 898.992188 45.058594 C 896.203125 27.511719 891.417969 20.734375 887.035156 27.910156 Z M 822.847656 46.253906 C 827.234375 58.214844 825.238281 90.113281 819.261719 98.089844 C 814.078125 104.867188 813.679688 102.476562 813.28125 72.570312 C 813.28125 42.265625 817.265625 31.5 822.847656 46.253906 Z M 889.824219 109.652344 C 891.019531 121.214844 890.222656 123.609375 883.84375 123.609375 C 877.863281 123.609375 876.667969 121.613281 878.660156 114.4375 C 879.855469 109.652344 881.054688 102.476562 881.054688 98.488281 C 881.054688 86.125 888.230469 94.898438 889.824219 109.652344 Z M 889.824219 109.652344 "/>
<path style=" stroke:none;fill-rule:nonzero;fill:rgb(0%,0%,0%);fill-opacity:1;" d="M 512.683594 39.875 C 499.929688 55.425781 496.339844 72.570312 496.339844 119.621094 C 496.339844 181.425781 517.070312 211.726562 548.167969 196.175781 C 561.722656 189.398438 562.121094 189 562.121094 164.277344 C 562.121094 149.523438 563.714844 139.558594 566.503906 139.558594 C 568.5 139.558594 569.296875 137.5625 568.101562 135.570312 C 566.902344 133.175781 559.726562 131.582031 552.152344 131.582031 C 544.578125 131.582031 537.402344 133.175781 536.207031 135.570312 C 535.011719 137.5625 535.808594 139.558594 537.800781 139.558594 C 542.585938 139.558594 543.78125 174.246094 539.792969 185.011719 C 536.207031 194.582031 526.636719 192.589844 522.253906 181.425781 C 520.261719 176.242188 518.265625 145.539062 517.867188 113.640625 C 517.46875 66.191406 518.664062 53.828125 523.847656 45.855469 C 535.011719 29.109375 542.585938 35.488281 548.167969 64.992188 C 552.550781 87.324219 558.132812 82.539062 558.132812 56.222656 C 558.132812 35.488281 557.335938 32.695312 549.363281 30.304688 C 531.820312 25.917969 522.652344 27.910156 512.683594 39.875 Z M 512.683594 39.875 "/>
<path style=" stroke:none;fill-rule:nonzero;fill:rgb(0%,0%,0%);fill-opacity:1;" d="M 570.09375 33.890625 C 570.09375 37.082031 572.085938 39.875 574.078125 39.875 C 576.472656 39.875 578.066406 66.988281 578.066406 113.242188 C 578.066406 158.296875 576.472656 187.804688 574.078125 189.398438 C 562.121094 196.574219 574.078125 199.367188 615.144531 198.96875 L 659.792969 198.570312 L 658.996094 139.957031 L 658.199219 81.742188 L 665.375 103.671875 C 669.761719 115.632812 677.734375 141.152344 683.316406 160.292969 C 689.292969 179.828125 695.671875 195.378906 697.667969 195.378906 C 700.058594 195.378906 701.652344 165.074219 701.652344 117.625 C 701.652344 68.582031 703.246094 39.875 705.640625 39.875 C 708.03125 39.875 709.625 37.082031 709.625 33.890625 C 709.625 30.304688 706.039062 27.910156 700.058594 27.910156 C 688.097656 27.910156 683.316406 34.292969 691.6875 39.074219 C 696.871094 41.867188 697.667969 49.042969 696.871094 80.144531 L 695.671875 117.625 L 686.105469 87.722656 C 668.5625 31.101562 667.765625 29.90625 654.210938 28.707031 C 645.042969 27.910156 641.851562 29.109375 641.851562 33.492188 C 641.851562 37.082031 643.847656 39.875 645.839844 39.875 C 652.21875 39.875 649.429688 188.203125 643.050781 190.59375 C 639.0625 191.792969 637.867188 185.410156 637.867188 167.867188 C 637.867188 154.308594 636.273438 143.542969 633.878906 143.542969 C 631.886719 143.542969 629.894531 146.734375 629.894531 151.121094 C 629.894531 171.457031 611.953125 195.777344 601.589844 189 C 596.804688 186.207031 596.804688 111.644531 601.988281 111.644531 C 603.980469 111.644531 606.769531 116.429688 608.367188 122.410156 C 612.351562 140.753906 613.546875 143.542969 617.933594 143.542969 C 620.324219 143.542969 621.921875 129.589844 621.921875 107.660156 C 621.921875 69.378906 617.136719 61.40625 609.960938 87.722656 C 603.183594 113.242188 598 106.460938 598 71.773438 C 598 43.0625 598.796875 39.875 605.574219 39.875 C 614.742188 39.875 620.324219 46.253906 623.914062 61.007812 C 628.699219 79.347656 634.277344 72.96875 633.082031 50.640625 L 631.886719 29.90625 L 601.1875 28.707031 C 575.277344 27.910156 570.09375 28.707031 570.09375 33.890625 Z M 570.09375 33.890625 "/>
<path style=" stroke:none;fill-rule:nonzero;fill:rgb(0%,0%,0%);fill-opacity:1;" d="M 715.207031 32.296875 C 713.613281 35.089844 714.410156 38.277344 716.800781 39.074219 C 722.78125 41.070312 723.578125 191.390625 717.601562 191.390625 C 715.605469 191.390625 713.613281 193.386719 713.613281 195.378906 C 713.613281 198.171875 725.574219 199.367188 746.703125 198.570312 L 779.394531 197.375 L 780.589844 170.257812 C 781.785156 140.753906 775.804688 133.574219 771.421875 159.890625 C 768.628906 177.039062 756.269531 192.988281 748.296875 190.195312 C 745.109375 189.398438 743.113281 175.441406 742.316406 149.523438 C 741.519531 114.835938 741.917969 110.847656 747.5 115.632812 C 750.6875 118.425781 753.480469 124.804688 753.480469 129.988281 C 753.480469 134.773438 755.472656 140.355469 757.464844 141.550781 C 759.859375 143.144531 761.453125 130.785156 761.453125 107.660156 C 761.453125 84.53125 759.859375 72.171875 757.464844 73.765625 C 755.472656 74.960938 753.480469 80.542969 753.480469 85.328125 C 753.480469 90.511719 750.6875 96.890625 747.5 99.683594 C 742.316406 104.070312 741.519531 100.480469 741.519531 72.171875 C 741.519531 41.070312 741.917969 39.875 750.6875 39.875 C 760.257812 39.875 769.425781 53.03125 769.425781 65.792969 C 769.425781 68.980469 771.421875 71.773438 773.8125 71.773438 C 776.203125 71.773438 777.398438 63.398438 776.601562 50.640625 L 775.40625 29.90625 L 746.703125 28.707031 C 727.566406 27.910156 717.203125 29.109375 715.207031 32.296875 Z M 715.207031 32.296875 "/>
<path style=" stroke:none;fill-rule:nonzero;fill:rgb(0%,0%,0%);fill-opacity:1;" d="M 931.683594 30.304688 C 930.089844 31.898438 928.894531 43.0625 928.894531 54.625 C 928.894531 70.175781 930.488281 76.160156 934.074219 74.960938 C 936.46875 73.765625 939.257812 67.785156 940.054688 60.609375 C 940.851562 53.828125 944.042969 46.253906 947.230469 43.859375 C 952.015625 39.476562 952.8125 49.042969 952.8125 112.839844 C 952.8125 157.898438 951.21875 187.804688 948.828125 189.398438 C 939.65625 194.980469 946.035156 199.367188 962.382812 199.367188 C 980.71875 199.367188 989.492188 194.183594 978.726562 189.796875 C 973.542969 188.203125 972.746094 175.441406 972.746094 113.242188 C 972.746094 55.824219 973.941406 39.476562 977.929688 40.671875 C 980.320312 41.867188 984.308594 49.839844 986.300781 59.011719 C 991.484375 83.335938 997.066406 79.347656 995.871094 52.632812 L 994.671875 29.90625 L 964.773438 28.707031 C 948.03125 28.308594 933.277344 28.707031 931.683594 30.304688 Z M 931.683594 30.304688 "/>
<path style=" stroke:none;fill-rule:nonzero;fill:rgb(0%,0%,0%);fill-opacity:1;" d="M 1022.980469 35.089844 C 1003.046875 57.417969 993.875 122.011719 1005.4375 160.691406 C 1010.222656 177.039062 1031.75 203.355469 1040.121094 203.355469 C 1048.890625 203.355469 1067.628906 181.023438 1072.414062 165.074219 C 1089.953125 105.265625 1073.609375 31.898438 1042.113281 28.707031 C 1034.140625 27.910156 1027.761719 30.304688 1022.980469 35.089844 Z M 1052.878906 52.632812 C 1058.859375 76.160156 1056.066406 176.242188 1048.890625 184.613281 C 1040.917969 194.582031 1034.140625 192.988281 1028.558594 179.828125 C 1021.78125 163.480469 1024.574219 51.4375 1032.148438 42.664062 C 1040.917969 31.5 1048.09375 35.089844 1052.878906 52.632812 Z M 1052.878906 52.632812 "/>
<path style=" stroke:none;fill-rule:nonzero;fill:rgb(0%,0%,0%);fill-opacity:1;" d="M 1082.378906 31.5 C 1081.183594 33.492188 1081.980469 36.285156 1084.375 37.878906 C 1089.953125 41.46875 1089.953125 191.390625 1083.976562 191.390625 C 1081.980469 191.390625 1081.183594 192.988281 1082.378906 195.378906 C 1083.574219 197.375 1092.746094 199.367188 1102.710938 199.367188 C 1112.28125 199.367188 1120.253906 197.375 1120.253906 195.378906 C 1120.253906 192.988281 1118.660156 191.390625 1116.265625 191.390625 C 1113.875 191.390625 1112.28125 175.042969 1112.28125 150.722656 C 1112.28125 99.683594 1119.855469 102.074219 1124.636719 154.308594 C 1126.234375 173.449219 1127.828125 190.59375 1127.828125 192.191406 C 1128.226562 193.785156 1131.816406 196.976562 1136.597656 199.367188 C 1142.578125 202.957031 1146.167969 202.558594 1150.550781 198.96875 C 1156.53125 194.183594 1158.523438 181.425781 1152.546875 185.011719 C 1148.957031 187.40625 1144.171875 165.476562 1144.171875 144.339844 C 1144.171875 136.765625 1141.382812 124.40625 1137.792969 116.828125 C 1132.613281 106.859375 1132.214844 102.074219 1135.800781 98.488281 C 1138.191406 96.09375 1140.1875 82.9375 1140.1875 69.777344 C 1140.1875 38.277344 1131.015625 27.910156 1103.109375 27.910156 C 1093.144531 27.910156 1083.976562 29.507812 1082.378906 31.5 Z M 1120.253906 71.773438 C 1120.253906 86.925781 1118.660156 100.480469 1116.265625 101.675781 C 1113.875 103.273438 1112.28125 92.507812 1112.28125 71.773438 C 1112.28125 51.039062 1113.875 40.273438 1116.265625 41.867188 C 1118.660156 43.0625 1120.253906 56.621094 1120.253906 71.773438 Z M 1120.253906 71.773438 "/>
<path style=" stroke:none;fill-rule:nonzero;fill:rgb(0%,0%,0%);fill-opacity:1;" d="M 928.894531 231.664062 C 861.121094 241.632812 825.238281 250.007812 825.238281 254.792969 C 825.238281 257.980469 849.558594 255.191406 887.035156 248.011719 C 898.195312 245.621094 928.894531 241.632812 955.605469 238.839844 C 1032.945312 230.867188 1092.746094 243.625 1104.707031 270.742188 C 1111.085938 284.695312 1116.265625 286.691406 1116.265625 275.125 C 1116.265625 259.976562 1095.933594 243.226562 1068.027344 235.253906 C 1038.925781 227.277344 968.761719 225.285156 928.894531 231.664062 Z M 928.894531 231.664062 "/>
<path style=" stroke:none;fill-rule:nonzero;fill:rgb(0%,0%,0%);fill-opacity:1;" d="M 1006.632812 373.214844 C 969.558594 392.753906 957.199219 402.722656 968.761719 402.722656 C 974.738281 402.722656 1030.554688 373.214844 1044.109375 363.246094 C 1064.839844 347.695312 1044.507812 352.878906 1006.632812 373.214844 Z M 1006.632812 373.214844 "/>
<path style=" stroke:none;fill-rule:nonzero;fill:rgb(0%,0%,0%);fill-opacity:1;" d="M 545.375 372.417969 C 517.46875 395.144531 502.320312 417.074219 502.320312 435.417969 C 502.320312 478.082031 560.925781 494.429688 675.339844 484.0625 C 745.90625 477.285156 868.296875 449.375 875.472656 438.207031 C 879.058594 432.226562 864.308594 434.222656 832.816406 444.191406 C 800.523438 454.558594 739.527344 467.316406 686.902344 474.492188 C 649.03125 480.074219 567.300781 477.683594 544.578125 470.507812 C 525.441406 464.523438 510.292969 450.171875 510.292969 437.410156 C 510.292969 423.058594 531.023438 394.746094 553.746094 377.601562 C 572.484375 363.644531 579.261719 354.875 570.492188 354.875 C 568.5 354.875 557.335938 362.847656 545.375 372.417969 Z M 545.375 372.417969 "/>
</g>
</svg>
