<?xml version="1.0" standalone="no"?>
<!DOCTYPE svg PUBLIC "-//W3C//DTD SVG 20010904//EN"
 "http://www.w3.org/TR/2001/REC-SVG-20010904/DTD/svg10.dtd">
<svg version="1.0" xmlns="http://www.w3.org/2000/svg"
 width="900.000000pt" height="378.000000pt" viewBox="0 0 900.000000 378.000000"
 preserveAspectRatio="xMidYMid meet">
<metadata>
Created by potrace 1.10, written by Peter Selinger 2001-2011
</metadata>
<g transform="translate(0.000000,378.000000) scale(0.100000,-0.100000)"
fill="#000000" stroke="none">
<path d="M6617 494 c-9 -9 -9 -350 -1 -382 6 -19 12 -23 43 -20 l36 3 3 67 c4
84 24 107 46 54 22 -53 91 -64 111 -18 17 39 35 26 35 -26 0 -56 23 -86 62
-80 l23 3 0 200 0 200 -40 0 c-40 0 -40 0 -78 -77 -27 -54 -44 -78 -56 -78
-13 0 -31 24 -58 78 -38 75 -40 77 -79 80 -22 2 -43 0 -47 -4z"/>
<path d="M7116 457 c-9 -23 -16 -48 -16 -55 0 -7 -4 -20 -9 -30 -5 -9 -19 -46
-31 -82 -12 -36 -29 -78 -37 -95 -8 -16 -13 -46 -11 -65 3 -32 6 -35 39 -38
33 -3 37 0 45 29 13 46 50 70 94 61 27 -6 38 -16 55 -50 18 -38 23 -42 57 -42
20 0 38 6 41 13 3 9 9 9 29 -1 48 -26 63 -14 66 53 3 66 14 85 47 85 23 0 32
-12 91 -110 15 -26 29 -36 51 -38 46 -5 53 37 17 107 l-26 53 23 31 c34 46 38
125 9 171 -12 20 -31 38 -43 41 -12 3 -74 4 -137 3 l-115 -3 -3 -147 c-2 -124
-5 -148 -18 -148 -8 0 -16 6 -19 13 -2 6 -13 46 -25 87 -13 41 -26 79 -31 85
-5 5 -9 18 -9 28 0 11 -9 35 -21 53 -18 29 -26 34 -58 34 -36 0 -39 -3 -55
-43z m428 -38 c42 -25 46 -50 11 -73 -47 -31 -115 -12 -115 32 0 27 29 62 50
62 10 0 35 -9 54 -21z m-351 -121 c7 -25 1 -38 -18 -38 -19 0 -27 17 -20 40 8
27 31 25 38 -2z"/>
<path d="M7904 492 c-6 -4 -19 -24 -29 -45 -14 -30 -15 -40 -5 -52 21 -26 66
-18 92 15 l24 31 22 -24 c27 -29 20 -55 -17 -63 -51 -11 -52 -13 -49 -51 3
-36 5 -38 40 -41 25 -2 42 -10 48 -22 25 -46 -34 -79 -74 -41 -50 47 -109 13
-83 -49 18 -41 57 -60 126 -60 52 0 60 3 91 35 30 31 34 41 34 91 0 44 -4 60
-19 70 -18 14 -18 16 -2 43 26 44 22 103 -9 140 -25 30 -29 31 -102 31 -43 0
-82 -4 -88 -8z"/>
<path d="M8540 493 c-22 -9 -30 -24 -30 -63 0 -23 7 -41 20 -53 18 -15 20 -29
20 -135 0 -102 3 -121 18 -135 10 -10 28 -17 40 -17 29 0 33 32 30 235 l-3
170 -40 2 c-22 1 -47 -1 -55 -4z"/>
<path d="M8766 481 c-12 -13 -16 -32 -14 -58 3 -34 6 -38 33 -41 22 -3 35 3
51 23 18 23 24 25 43 16 30 -17 26 -50 -12 -92 -74 -84 -120 -142 -134 -170
-14 -27 -13 -32 3 -50 15 -17 31 -19 141 -19 l123 0 0 39 0 39 -49 7 c-65 9
-72 28 -28 74 19 20 37 44 40 54 4 9 13 17 22 17 12 0 15 14 15 75 0 67 -2 75
-19 75 -10 0 -21 7 -25 15 -4 12 -24 15 -89 15 -70 0 -87 -3 -101 -19z"/>
<path d="M8279 304 c-6 -7 -9 -25 -7 -41 3 -28 3 -28 84 -31 71 -2 82 0 99 18
18 20 18 21 -1 40 -24 25 -157 35 -175 14z"/>
</g>
</svg>
