<?xml version="1.0" standalone="no"?>
<!DOCTYPE svg PUBLIC "-//W3C//DTD SVG 20010904//EN"
 "http://www.w3.org/TR/2001/REC-SVG-20010904/DTD/svg10.dtd">
<svg version="1.0" xmlns="http://www.w3.org/2000/svg"
 width="900.000000pt" height="378.000000pt" viewBox="0 0 900.000000 378.000000"
 preserveAspectRatio="xMidYMid meet">
<metadata>
Created by potrace 1.10, written by Peter Selinger 2001-2011
</metadata>
<g transform="translate(0.000000,378.000000) scale(0.100000,-0.100000)"
fill="#000000" stroke="none">
<path d="M4817 1813 c-14 -13 -6 -54 13 -70 24 -21 25 -39 5 -59 -8 -9 -15
-25 -15 -37 0 -12 -7 -31 -15 -41 -8 -11 -15 -39 -15 -62 0 -24 -4 -46 -10
-49 -5 -3 -10 -20 -10 -36 0 -16 -6 -32 -14 -35 -7 -3 -16 -27 -20 -54 -4 -27
-11 -52 -16 -55 -6 -3 -10 -17 -10 -31 0 -30 -43 -55 -62 -36 -9 9 -9 15 0 24
7 7 12 22 12 34 0 13 7 29 15 38 8 8 15 24 15 36 0 11 9 38 20 60 11 22 20 55
20 75 0 35 0 35 -43 35 l-44 0 -18 -62 c-9 -35 -24 -77 -31 -95 -8 -17 -14
-34 -14 -39 0 -4 -21 -36 -47 -71 -79 -105 -118 -65 -57 57 14 27 29 52 34 55
6 3 10 17 10 29 0 13 7 29 16 36 10 9 14 26 12 49 l-3 36 -59 3 -59 3 6 60 c6
51 4 62 -13 79 -11 11 -20 24 -20 29 0 13 -46 41 -67 41 -10 0 -27 7 -37 15
-15 11 -49 15 -136 15 -111 0 -117 -1 -127 -22 -15 -34 1 -68 31 -68 27 0 45
-18 29 -29 -17 -11 -65 -127 -83 -200 -5 -18 -13 -38 -19 -44 -6 -6 -11 -18
-11 -26 0 -9 -7 -29 -15 -45 -8 -15 -15 -36 -15 -45 0 -9 -9 -31 -20 -49 -15
-24 -25 -32 -39 -27 -24 7 -45 -19 -37 -49 6 -23 7 -23 137 -22 110 1 132 4
140 18 14 24 1 46 -29 50 -22 2 -28 9 -30 36 -2 19 3 38 12 48 9 8 16 27 16
42 0 47 11 53 91 51 80 -2 134 17 173 60 22 24 66 28 66 6 0 -8 -4 -15 -9 -15
-5 0 -12 -13 -16 -29 -3 -16 -13 -35 -21 -42 -8 -6 -14 -21 -14 -33 0 -11 -7
-30 -15 -40 -9 -11 -15 -41 -15 -68 0 -41 5 -53 28 -74 23 -23 34 -25 79 -22
30 3 61 12 71 21 23 21 51 22 58 2 3 -8 22 -17 41 -21 27 -5 41 -2 63 15 36
26 44 26 87 0 45 -28 113 -19 165 22 20 16 41 29 46 29 6 0 15 12 21 28 20 47
42 82 52 82 5 0 9 9 9 20 0 11 7 20 15 20 18 0 20 -29 2 -36 -7 -2 -13 -22
-14 -44 -1 -22 -7 -48 -12 -59 -16 -28 3 -69 34 -77 35 -9 92 3 99 21 4 12 11
11 41 -6 45 -27 109 -22 132 10 18 27 32 26 73 -4 46 -34 124 -35 166 -2 69
53 86 81 71 114 -16 35 -55 31 -68 -7 -6 -16 -17 -30 -24 -30 -7 0 -18 -7 -25
-16 -8 -8 -25 -14 -39 -12 -25 3 -26 6 -29 75 -3 71 3 89 43 141 49 63 75 67
75 13 0 -56 45 -70 93 -28 41 35 37 79 -10 122 -32 29 -45 35 -85 35 -27 0
-50 -5 -55 -12 -4 -7 -17 -18 -28 -24 -29 -15 -115 -125 -115 -145 0 -10 -7
-24 -15 -33 -9 -8 -15 -33 -15 -58 0 -44 -13 -68 -37 -68 -18 0 -17 77 2 114
8 15 15 36 15 46 0 10 6 25 13 32 18 19 41 94 32 108 -4 7 -26 11 -59 9 -66
-5 -82 5 -62 36 9 13 19 42 22 65 4 23 14 46 24 52 10 7 15 19 12 33 -2 13 1
26 7 29 7 5 6 15 -5 32 -15 22 -23 24 -85 24 l-69 0 0 -31 c0 -17 5 -40 11
-51 12 -22 1 -77 -27 -130 -8 -14 -14 -35 -14 -45 0 -11 -3 -23 -7 -27 -5 -4
-12 -35 -18 -69 -8 -52 -13 -62 -30 -62 -17 0 -20 6 -17 42 3 35 -2 49 -30 83
-29 37 -36 41 -68 37 -19 -2 -43 -7 -54 -12 -16 -7 -18 -5 -13 21 9 47 39 124
48 124 5 0 9 27 9 60 l0 60 -73 0 c-41 0 -77 -3 -80 -7z m-515 -130 c26 -24
24 -92 -4 -129 -35 -45 -51 -58 -88 -75 -33 -15 -70 -15 -70 -1 0 12 25 76 38
99 7 12 12 29 12 37 0 9 4 24 9 34 5 9 12 25 15 35 7 22 63 23 88 0z m978
-188 c9 -11 9 -22 0 -52 -7 -21 -16 -42 -20 -48 -4 -5 -10 -26 -14 -46 -8 -46
-66 -115 -89 -106 -21 8 -22 40 -2 57 8 7 15 22 15 34 0 12 6 30 13 41 8 11
17 36 21 54 13 68 49 99 76 66z m-299 -5 c23 -13 25 -43 4 -60 -8 -7 -15 -23
-15 -35 0 -12 -7 -28 -15 -35 -8 -7 -15 -19 -15 -26 0 -8 -4 -14 -10 -14 -5 0
-13 -15 -18 -32 -6 -23 -15 -34 -31 -36 -12 -2 -25 -10 -28 -18 -3 -8 -18 -14
-34 -14 -24 0 -29 4 -29 25 0 14 4 33 8 43 42 85 52 109 52 118 0 14 86 94
100 94 6 0 20 -5 31 -10z"/>
<path d="M5377 1758 c-31 -34 -30 -62 0 -98 23 -26 50 -25 79 3 33 31 31 69
-7 101 -17 14 -34 26 -38 26 -3 0 -19 -14 -34 -32z"/>
<path d="M5990 1775 c-7 -8 -20 -15 -30 -15 -9 0 -34 -15 -54 -33 -35 -30 -38
-37 -43 -100 -5 -59 -3 -72 16 -97 11 -16 21 -33 21 -38 0 -12 77 -82 90 -82
17 0 60 -55 60 -77 0 -44 -32 -92 -68 -104 -41 -14 -113 -6 -147 17 -19 13
-25 25 -27 67 -3 45 -6 52 -25 55 -17 3 -26 -5 -39 -35 -10 -21 -18 -45 -19
-53 0 -8 -4 -30 -9 -47 -9 -39 0 -73 20 -73 8 0 14 5 14 10 0 15 42 12 83 -5
48 -20 150 -19 193 1 18 9 49 35 68 58 20 22 43 50 53 61 22 25 20 103 -4 155
-20 44 -102 130 -124 130 -20 0 -59 50 -59 74 0 29 61 75 101 76 47 0 99 -44
99 -86 0 -16 4 -35 9 -42 10 -17 41 -12 51 8 29 59 40 97 40 140 0 44 -2 50
-21 50 -12 0 -28 -8 -35 -17 -12 -17 -14 -17 -42 0 -39 22 -154 24 -172 2z"/>
<path d="M7850 1775 c-7 -8 -21 -15 -31 -15 -25 0 -159 -127 -175 -167 -8 -17
-18 -34 -24 -38 -5 -3 -10 -19 -10 -34 0 -15 -4 -31 -10 -37 -15 -15 -15 -135
-1 -174 36 -93 45 -109 75 -131 27 -21 42 -24 122 -24 67 0 97 4 110 15 11 8
35 23 54 33 56 29 150 163 150 212 0 28 48 85 66 78 19 -7 18 -47 -1 -63 -8
-7 -15 -21 -15 -32 0 -11 -16 -52 -36 -92 -24 -51 -34 -84 -32 -107 3 -31 6
-34 40 -37 29 -3 40 1 52 20 18 29 56 136 56 160 0 37 77 132 121 150 27 11
46 -18 26 -40 -8 -9 -18 -33 -22 -52 -4 -19 -18 -51 -31 -72 -17 -26 -24 -52
-24 -86 0 -58 20 -81 77 -89 31 -4 43 0 66 21 33 31 53 33 62 7 9 -29 94 -42
147 -22 30 12 108 86 108 103 -1 45 -61 64 -81 26 -33 -65 -96 -91 -119 -49
-13 25 -13 87 0 110 8 16 16 17 54 10 38 -7 52 -4 103 20 71 35 102 80 86 127
-5 16 -20 34 -32 40 -13 7 -28 17 -34 23 -17 17 -102 14 -117 -4 -7 -8 -18
-15 -25 -15 -7 0 -25 -17 -40 -37 -29 -39 -64 -72 -77 -73 -5 0 -8 18 -8 39 0
52 -8 71 -30 71 -10 0 -23 7 -30 15 -16 20 -39 19 -62 -2 -14 -13 -38 -16
-111 -16 l-92 0 -6 39 c-12 85 -61 174 -95 174 -6 0 -17 7 -24 15 -9 11 -33
15 -90 15 -57 0 -81 -4 -90 -15z m140 -72 c14 -9 28 -22 32 -27 11 -16 10
-154 -2 -161 -5 -3 -12 -28 -16 -55 -4 -27 -13 -55 -20 -61 -8 -6 -14 -16 -14
-22 0 -15 -89 -120 -119 -139 -14 -10 -43 -18 -63 -18 -52 0 -88 52 -88 125 0
28 5 56 11 62 6 6 14 26 19 44 14 55 33 101 60 144 13 22 27 46 30 54 8 17
100 69 125 70 11 1 32 -7 45 -16z m706 -218 c8 -19 -8 -38 -52 -64 -30 -18
-35 -19 -41 -5 -3 9 7 28 28 50 36 37 56 43 65 19z m-216 -130 c0 -8 -7 -15
-15 -15 -8 0 -15 7 -15 15 0 8 7 15 15 15 8 0 15 -7 15 -15z m-25 -75 c0 -25
-5 -36 -18 -38 -21 -4 -31 19 -23 54 10 40 41 28 41 -16z"/>
<path d="M6372 1568 c-7 -7 -48 -15 -90 -18 -66 -4 -77 -8 -80 -24 -3 -11 5
-26 18 -36 21 -15 21 -18 6 -61 -9 -24 -16 -53 -16 -64 0 -11 -7 -33 -15 -49
-8 -15 -15 -41 -15 -56 0 -15 -7 -33 -15 -40 -8 -7 -15 -18 -15 -24 -1 -6 -9
-29 -20 -51 -11 -22 -19 -49 -20 -60 0 -27 -46 -75 -71 -75 -31 0 -21 -42 14
-58 28 -14 28 -14 10 -35 -10 -11 -36 -38 -58 -60 l-40 -40 -3 26 c-2 14 2 35
7 46 24 43 3 81 -43 81 -25 0 -56 -37 -56 -67 0 -16 -7 -37 -15 -47 -8 -10
-12 -22 -10 -27 14 -22 -112 -199 -142 -199 -18 0 -16 32 3 77 16 35 23 53 52
123 56 135 57 134 -154 135 -166 1 -201 -4 -217 -31 -4 -8 -15 -14 -24 -14
-20 0 -93 -73 -93 -93 0 -9 -5 -19 -10 -22 -19 -12 -40 -77 -40 -125 0 -41 5
-53 31 -79 27 -27 37 -31 86 -31 39 0 62 5 75 17 17 15 21 15 54 0 41 -20 66
-21 111 -5 27 10 38 10 53 0 27 -16 82 -15 116 3 37 19 58 19 74 0 21 -25 92
-19 124 10 15 14 29 25 31 25 2 0 16 -11 31 -25 22 -21 37 -25 84 -25 32 0 71
7 89 16 30 15 34 15 50 0 24 -22 99 -21 123 1 19 17 21 17 50 0 41 -24 100
-22 123 3 23 25 47 25 70 0 28 -31 118 -28 161 5 18 14 40 25 49 25 8 0 20 11
25 25 15 41 34 31 26 -14 -4 -29 -2 -44 10 -55 18 -19 16 -19 47 -7 25 10 67
82 67 114 0 10 4 25 9 35 6 9 12 28 15 42 7 32 94 135 115 135 24 0 25 -31 2
-76 -12 -22 -21 -47 -21 -56 0 -9 -7 -24 -16 -34 -8 -9 -18 -42 -21 -72 -5
-49 -3 -56 18 -71 14 -9 43 -16 72 -16 40 0 53 5 78 29 31 32 39 78 14 87 -8
3 -29 -1 -46 -10 -18 -9 -33 -16 -35 -16 -2 0 4 15 13 33 29 57 33 66 48 109
16 46 20 116 7 134 -19 30 -112 47 -127 24 -3 -5 -46 -7 -106 -3 -97 6 -100 5
-106 -15 -7 -28 -16 -28 -47 3 -21 21 -34 25 -84 25 -69 0 -113 -19 -155 -67
-16 -18 -33 -33 -37 -33 -5 0 -10 19 -12 43 l-3 42 -55 0 -55 0 -5 40 c-4 35
-8 40 -34 43 -44 5 -74 -6 -82 -31 -11 -36 -35 -57 -66 -57 -24 0 -28 4 -28
29 0 16 -6 31 -15 35 -8 3 -15 15 -15 26 0 12 7 28 15 36 8 9 15 27 15 42 0
42 14 56 46 48 74 -18 84 -18 137 8 30 14 57 32 61 41 7 20 52 19 60 -1 11
-28 6 -51 -14 -69 -26 -24 -25 -41 5 -70 28 -29 65 -32 101 -8 20 13 25 23 22
50 -2 27 3 39 22 53 30 24 48 25 70 5 9 -8 37 -18 63 -21 41 -6 48 -4 72 22
22 24 29 26 43 16 66 -48 150 -56 201 -18 35 26 49 25 93 -7 21 -16 38 -19 87
-15 53 4 66 9 96 38 28 27 35 42 35 71 0 21 -5 41 -10 44 -14 9 -50 -4 -50
-18 0 -20 -53 -67 -76 -67 -38 0 -51 33 -46 113 2 27 4 28 50 27 75 -2 120 12
157 49 49 48 49 97 0 140 -51 44 -103 43 -161 -4 -40 -33 -74 -45 -74 -27 0 5
-10 21 -23 35 -18 22 -31 27 -69 27 -28 0 -50 -6 -58 -15 -7 -8 -17 -15 -22
-15 -19 0 -98 -73 -98 -91 0 -10 -5 -21 -11 -24 -5 -4 -15 -19 -20 -33 -10
-25 -11 -26 -24 -9 -14 19 -10 51 12 82 7 11 13 32 13 47 0 26 -3 28 -44 28
-26 0 -48 6 -56 15 -14 16 -75 21 -84 6 -4 -5 -25 -19 -49 -30 -24 -12 -56
-39 -73 -61 -33 -46 -54 -48 -65 -6 -9 32 -46 76 -65 76 -6 0 -14 7 -18 15 -7
19 -77 20 -94 3z m432 -112 c-4 -17 -13 -40 -20 -51 -8 -11 -14 -25 -14 -33 0
-7 -4 -18 -10 -25 -5 -7 -29 -36 -52 -66 -56 -71 -72 -81 -95 -58 -15 14 -15
22 -5 50 7 18 12 41 12 50 0 9 4 17 9 17 5 0 14 13 19 28 12 36 67 100 106
123 39 24 60 9 50 -35z m576 34 c21 -13 3 -39 -46 -67 -48 -26 -54 -27 -54 -8
0 8 5 15 10 15 6 0 10 9 10 19 0 19 34 51 55 51 5 0 17 -5 25 -10z m-922 -29
c4 -26 -13 -94 -29 -121 -5 -8 -13 -25 -18 -36 -19 -44 -70 -92 -91 -87 -36
10 -49 39 -35 79 6 19 17 40 23 46 7 7 12 19 12 28 0 17 31 82 51 106 8 10 25
14 48 12 30 -2 37 -7 39 -27z m667 1 c0 -12 8 -31 18 -42 18 -22 22 -46 8 -54
-4 -3 -11 -22 -14 -42 -8 -45 -71 -115 -96 -107 -28 10 -61 46 -61 65 0 11 7
26 15 35 8 8 13 19 10 24 -7 10 33 107 55 131 22 25 65 19 65 -10z m-231 -98
c3 -9 6 -33 6 -55 0 -32 -4 -41 -25 -51 -36 -16 -46 -1 -32 52 18 69 38 89 51
54z m-1224 -488 c0 -19 -7 -41 -15 -50 -8 -8 -15 -25 -15 -38 0 -13 -7 -33
-15 -44 -8 -10 -15 -27 -15 -36 0 -15 -48 -58 -64 -58 -3 0 -6 14 -6 30 0 17
5 30 10 30 6 0 10 11 10 24 0 14 6 31 14 39 8 8 18 31 21 51 4 20 11 36 15 36
4 0 11 11 14 25 4 16 13 25 26 25 16 0 20 -7 20 -34z m786 19 c7 -17 -14 -75
-26 -75 -5 0 -11 -22 -15 -48 -5 -39 -15 -57 -52 -95 -25 -26 -52 -47 -59 -47
-18 0 -18 0 10 64 13 29 27 68 31 85 3 17 11 33 16 36 5 4 9 16 9 28 0 52 70
93 86 52z m492 -11 c3 -23 -35 -77 -49 -69 -5 4 -9 26 -9 51 0 44 1 45 28 42
18 -2 28 -9 30 -24z m-1431 0 c3 -8 -4 -28 -16 -44 -11 -16 -21 -37 -21 -47 0
-10 -7 -27 -15 -37 -8 -11 -15 -27 -15 -36 0 -41 -102 -99 -121 -69 -18 29 28
134 90 208 37 44 86 57 98 25z m670 -14 c-6 -25 -3 -31 18 -36 13 -3 28 -3 33
0 5 3 15 0 21 -8 8 -10 6 -19 -9 -36 -11 -13 -20 -33 -20 -45 0 -26 -93 -105
-124 -105 -49 1 -74 48 -51 94 8 15 15 33 15 38 0 18 51 117 63 122 7 2 23 5
36 5 21 1 23 -2 18 -29z m612 8 c11 -31 2 -95 -15 -109 -8 -6 -14 -19 -14 -29
0 -18 -57 -82 -88 -99 -9 -5 -25 -5 -39 2 -18 8 -23 18 -23 47 0 21 7 43 15
50 8 7 15 23 15 36 0 12 5 26 10 29 6 3 10 14 10 23 0 9 12 29 27 44 35 36 89
39 102 6z m-261 -150 c3 -43 1 -47 -29 -62 -37 -19 -48 -13 -31 14 7 11 12 35
12 53 0 38 7 49 30 45 10 -2 16 -17 18 -50z m-578 8 c0 -41 -30 -82 -53 -73
-23 9 -21 33 4 73 27 45 49 45 49 0z"/>
<path d="M5046 1000 c-11 -22 -24 -40 -30 -41 -6 0 -65 0 -131 1 -66 0 -126 1
-132 1 -7 0 -24 0 -38 0 -14 0 -34 0 -45 -1 -45 -1 -67 0 -113 6 -31 4 -53 2
-60 -5 -6 -6 -18 -11 -27 -11 -9 0 -29 -13 -45 -30 -16 -16 -34 -30 -39 -31
-16 -1 -76 -86 -76 -107 0 -10 -7 -27 -15 -38 -17 -22 -20 -60 -5 -69 6 -3 10
-18 10 -33 0 -15 4 -31 8 -37 26 -36 117 -47 167 -21 25 13 32 13 56 0 32 -16
95 -19 104 -4 8 14 48 13 62 -1 19 -19 59 -2 75 33 18 39 38 93 45 127 10 40
60 126 76 129 8 2 18 -6 22 -17 4 -14 15 -21 31 -21 31 0 41 -23 22 -53 -8
-12 -22 -47 -32 -78 -27 -90 -1 -129 86 -129 55 0 98 38 98 88 0 37 -21 42
-58 16 -20 -14 -23 -14 -28 1 -4 9 1 24 10 34 9 10 16 26 16 36 0 10 7 26 15
35 9 10 19 35 22 56 8 50 19 64 53 64 42 0 60 10 60 32 0 12 -10 23 -29 29
-23 8 -31 17 -33 42 -3 30 -6 32 -43 35 -38 2 -41 0 -59 -38z m-305 -90 c19
-11 26 -44 10 -54 -5 -3 -11 -18 -14 -33 -2 -16 -14 -53 -25 -83 -15 -40 -26
-56 -42 -58 -12 -2 -24 -10 -27 -18 -6 -16 -29 -19 -38 -4 -4 6 7 32 23 58 16
27 33 63 37 81 8 38 43 121 51 121 3 0 14 -5 25 -10z m-161 -20 c8 -15 6 -30
-10 -64 -11 -25 -20 -52 -20 -60 0 -18 -112 -136 -129 -136 -24 0 -34 46 -18
81 9 19 19 45 22 59 15 52 79 115 142 139 1 1 7 -8 13 -19z"/>
</g>
</svg>
